<mxfile host="app.diagrams.net" modified="2024-05-21T15:31:58.038Z" agent="Mozilla/5.0 (Windows NT 10.0; Win64; x64) AppleWebKit/537.36 (KHTML, like Gecko) Chrome/125.0.0.0 Safari/537.36" etag="De2QaeXM0K-Eq1S-Jol7" version="24.4.0" type="github">
  <diagram name="Page-1" id="XaNC7DghIMJhVPoyRJdW">
    <mxGraphModel dx="1257" dy="657" grid="1" gridSize="10" guides="1" tooltips="1" connect="1" arrows="1" fold="1" page="1" pageScale="1" pageWidth="827" pageHeight="1169" math="0" shadow="0">
      <root>
        <mxCell id="0" />
        <mxCell id="1" parent="0" />
        <mxCell id="N4cY-j3PI6NyKeoeeF9C-1" value="" style="outlineConnect=0;dashed=0;verticalLabelPosition=bottom;verticalAlign=top;align=center;html=1;shape=mxgraph.aws3.oracle_db_instance;fillColor=#2E73B8;gradientColor=none;" vertex="1" parent="1">
          <mxGeometry x="60" y="131.25" width="60" height="64.5" as="geometry" />
        </mxCell>
        <mxCell id="N4cY-j3PI6NyKeoeeF9C-3" value="" style="outlineConnect=0;dashed=0;verticalLabelPosition=bottom;verticalAlign=top;align=center;html=1;shape=mxgraph.aws3.redshift;fillColor=#2E73B8;gradientColor=none;" vertex="1" parent="1">
          <mxGeometry x="841.5" y="127.25" width="67.5" height="75" as="geometry" />
        </mxCell>
        <mxCell id="N4cY-j3PI6NyKeoeeF9C-7" style="edgeStyle=orthogonalEdgeStyle;rounded=0;orthogonalLoop=1;jettySize=auto;html=1;" edge="1" parent="1" source="N4cY-j3PI6NyKeoeeF9C-4" target="N4cY-j3PI6NyKeoeeF9C-1">
          <mxGeometry relative="1" as="geometry" />
        </mxCell>
        <mxCell id="N4cY-j3PI6NyKeoeeF9C-9" style="edgeStyle=orthogonalEdgeStyle;rounded=0;orthogonalLoop=1;jettySize=auto;html=1;entryX=0;entryY=0.5;entryDx=0;entryDy=0;entryPerimeter=0;" edge="1" parent="1" source="N4cY-j3PI6NyKeoeeF9C-4" target="N4cY-j3PI6NyKeoeeF9C-5">
          <mxGeometry relative="1" as="geometry">
            <mxPoint x="620" y="160" as="targetPoint" />
          </mxGeometry>
        </mxCell>
        <mxCell id="N4cY-j3PI6NyKeoeeF9C-4" value="AWS Account" style="points=[[0,0],[0.25,0],[0.5,0],[0.75,0],[1,0],[1,0.25],[1,0.5],[1,0.75],[1,1],[0.75,1],[0.5,1],[0.25,1],[0,1],[0,0.75],[0,0.5],[0,0.25]];outlineConnect=0;gradientColor=none;html=1;whiteSpace=wrap;fontSize=12;fontStyle=0;container=1;pointerEvents=0;collapsible=0;recursiveResize=0;shape=mxgraph.aws4.group;grIcon=mxgraph.aws4.group_account;strokeColor=#CD2264;fillColor=none;verticalAlign=top;align=left;spacingLeft=30;fontColor=#CD2264;dashed=0;" vertex="1" parent="1">
          <mxGeometry x="274.25" y="78.5" width="355.75" height="170" as="geometry" />
        </mxCell>
        <mxCell id="N4cY-j3PI6NyKeoeeF9C-13" value="Lambda" style="text;html=1;align=center;verticalAlign=middle;whiteSpace=wrap;rounded=0;" vertex="1" parent="N4cY-j3PI6NyKeoeeF9C-4">
          <mxGeometry x="46.19" y="129.25" width="60" height="30" as="geometry" />
        </mxCell>
        <mxCell id="N4cY-j3PI6NyKeoeeF9C-14" value="" style="sketch=0;outlineConnect=0;fontColor=#232F3E;gradientColor=none;fillColor=#232F3D;strokeColor=none;dashed=0;verticalLabelPosition=bottom;verticalAlign=top;align=center;html=1;fontSize=12;fontStyle=0;aspect=fixed;pointerEvents=1;shape=mxgraph.aws4.source_code;" vertex="1" parent="N4cY-j3PI6NyKeoeeF9C-4">
          <mxGeometry x="54.82" y="71" width="42.75" height="58.5" as="geometry" />
        </mxCell>
        <mxCell id="N4cY-j3PI6NyKeoeeF9C-15" value="Amazon S3" style="sketch=0;outlineConnect=0;fontColor=#232F3E;gradientColor=none;strokeColor=#ffffff;fillColor=#232F3E;dashed=0;verticalLabelPosition=middle;verticalAlign=bottom;align=center;html=1;whiteSpace=wrap;fontSize=10;fontStyle=1;spacing=3;shape=mxgraph.aws4.productIcon;prIcon=mxgraph.aws4.s3;" vertex="1" parent="N4cY-j3PI6NyKeoeeF9C-4">
          <mxGeometry x="145.75" y="40.75" width="54.25" height="88.5" as="geometry" />
        </mxCell>
        <mxCell id="N4cY-j3PI6NyKeoeeF9C-17" value="" style="outlineConnect=0;dashed=0;verticalLabelPosition=bottom;verticalAlign=top;align=center;html=1;shape=mxgraph.aws3.lambda_function;fillColor=#F58534;gradientColor=none;" vertex="1" parent="N4cY-j3PI6NyKeoeeF9C-4">
          <mxGeometry x="52.47" y="21.5" width="47.44" height="49.5" as="geometry" />
        </mxCell>
        <mxCell id="N4cY-j3PI6NyKeoeeF9C-18" value="" style="endArrow=classic;html=1;rounded=0;entryX=0.018;entryY=0.561;entryDx=0;entryDy=0;entryPerimeter=0;" edge="1" parent="N4cY-j3PI6NyKeoeeF9C-4">
          <mxGeometry width="50" height="50" relative="1" as="geometry">
            <mxPoint x="99.75" y="81.5" as="sourcePoint" />
            <mxPoint x="140.88649999999998" y="81.4985" as="targetPoint" />
          </mxGeometry>
        </mxCell>
        <mxCell id="N4cY-j3PI6NyKeoeeF9C-19" value="" style="sketch=0;outlineConnect=0;fontColor=#232F3E;gradientColor=none;fillColor=#232F3D;strokeColor=none;dashed=0;verticalLabelPosition=bottom;verticalAlign=top;align=center;html=1;fontSize=12;fontStyle=0;aspect=fixed;pointerEvents=1;shape=mxgraph.aws4.source_code;" vertex="1" parent="N4cY-j3PI6NyKeoeeF9C-4">
          <mxGeometry x="288.1" y="80.5" width="42.75" height="58.5" as="geometry" />
        </mxCell>
        <mxCell id="N4cY-j3PI6NyKeoeeF9C-20" value="" style="outlineConnect=0;dashed=0;verticalLabelPosition=bottom;verticalAlign=top;align=center;html=1;shape=mxgraph.aws3.lambda_function;fillColor=#F58534;gradientColor=none;" vertex="1" parent="N4cY-j3PI6NyKeoeeF9C-4">
          <mxGeometry x="285.75" y="31" width="47.44" height="49.5" as="geometry" />
        </mxCell>
        <mxCell id="N4cY-j3PI6NyKeoeeF9C-22" value="" style="endArrow=classic;html=1;rounded=0;endSize=6;startSize=6;" edge="1" parent="N4cY-j3PI6NyKeoeeF9C-4">
          <mxGeometry width="50" height="50" relative="1" as="geometry">
            <mxPoint x="199.99999999999994" y="80.49543799966366" as="sourcePoint" />
            <mxPoint x="282.75" y="80.5" as="targetPoint" />
          </mxGeometry>
        </mxCell>
        <mxCell id="N4cY-j3PI6NyKeoeeF9C-24" value="Lambda" style="text;html=1;align=center;verticalAlign=middle;whiteSpace=wrap;rounded=0;" vertex="1" parent="N4cY-j3PI6NyKeoeeF9C-4">
          <mxGeometry x="279.48" y="129.5" width="60" height="30" as="geometry" />
        </mxCell>
        <mxCell id="N4cY-j3PI6NyKeoeeF9C-5" value="AWS Account" style="points=[[0,0],[0.25,0],[0.5,0],[0.75,0],[1,0],[1,0.25],[1,0.5],[1,0.75],[1,1],[0.75,1],[0.5,1],[0.25,1],[0,1],[0,0.75],[0,0.5],[0,0.25]];outlineConnect=0;gradientColor=none;html=1;whiteSpace=wrap;fontSize=12;fontStyle=0;container=1;pointerEvents=0;collapsible=0;recursiveResize=0;shape=mxgraph.aws4.group;grIcon=mxgraph.aws4.group_account;strokeColor=#CD2264;fillColor=none;verticalAlign=top;align=left;spacingLeft=30;fontColor=#CD2264;dashed=0;" vertex="1" parent="1">
          <mxGeometry x="795" y="78.5" width="160.5" height="170" as="geometry" />
        </mxCell>
        <mxCell id="N4cY-j3PI6NyKeoeeF9C-12" value="Redshift" style="text;html=1;align=center;verticalAlign=middle;whiteSpace=wrap;rounded=0;" vertex="1" parent="N4cY-j3PI6NyKeoeeF9C-5">
          <mxGeometry x="50.25" y="121" width="60" height="30" as="geometry" />
        </mxCell>
        <mxCell id="N4cY-j3PI6NyKeoeeF9C-6" value="" style="sketch=0;outlineConnect=0;fontColor=#232F3E;gradientColor=none;fillColor=#DD344C;strokeColor=none;dashed=0;verticalLabelPosition=bottom;verticalAlign=top;align=center;html=1;fontSize=12;fontStyle=0;aspect=fixed;pointerEvents=1;shape=mxgraph.aws4.identity_access_management_iam_roles_anywhere;" vertex="1" parent="1">
          <mxGeometry x="180" y="110" width="50" height="50" as="geometry" />
        </mxCell>
        <mxCell id="N4cY-j3PI6NyKeoeeF9C-8" value="IAM Role &amp;amp; Policy&amp;nbsp;" style="text;html=1;align=center;verticalAlign=middle;whiteSpace=wrap;rounded=0;" vertex="1" parent="1">
          <mxGeometry x="175" y="171" width="60" height="30" as="geometry" />
        </mxCell>
        <mxCell id="N4cY-j3PI6NyKeoeeF9C-10" value="" style="sketch=0;outlineConnect=0;fontColor=#232F3E;gradientColor=none;fillColor=#DD344C;strokeColor=none;dashed=0;verticalLabelPosition=bottom;verticalAlign=top;align=center;html=1;fontSize=12;fontStyle=0;aspect=fixed;pointerEvents=1;shape=mxgraph.aws4.identity_access_management_iam_roles_anywhere;" vertex="1" parent="1">
          <mxGeometry x="695" y="100" width="50" height="50" as="geometry" />
        </mxCell>
        <mxCell id="N4cY-j3PI6NyKeoeeF9C-11" value="IAM Role &amp;amp; Policy&amp;nbsp;" style="text;html=1;align=center;verticalAlign=middle;whiteSpace=wrap;rounded=0;" vertex="1" parent="1">
          <mxGeometry x="690" y="165.75" width="60" height="30" as="geometry" />
        </mxCell>
      </root>
    </mxGraphModel>
  </diagram>
</mxfile>
